Normalized EMG Linear Envelopes
nRows=119
nColumns=4

endheader
time	 med_gas_r	  soleus_r	 tib_ant_r	
2.71976	  0.002581	  0.004805	  0.001415	
2.79133	  0.002631	  0.004611	  0.001470	
2.8629	  0.002671	  0.004498	  0.001498	
2.93448	  0.002724	  0.004522	  0.001495	
3.00605	  0.002820	  0.004666	  0.001485	
3.07762	  0.002945	  0.004836	  0.001493	
3.14919	  0.003044	  0.004947	  0.001528	
3.22077	  0.003067	  0.004995	  0.001573	
3.29234	  0.003009	  0.004983	  0.001596	
3.36391	  0.002894	  0.004911	  0.001576	
3.43548	  0.002754	  0.004885	  0.001530	
3.50706	  0.002637	  0.005027	  0.001494	
3.57863	  0.002594	  0.005258	  0.001488	
3.6502	  0.002617	  0.005356	  0.001505	
3.72177	  0.002644	  0.005250	  0.001526	
3.79335	  0.002639	  0.005131	  0.001530	
3.86492	  0.002616	  0.005272	  0.001508	
3.93649	  0.002599	  0.005751	  0.001471	
4.00806	  0.002614	  0.006343	  0.001450	
4.07964	  0.002679	  0.006739	  0.001462	
4.15121	  0.002762	  0.006731	  0.001500	
4.22278	  0.002799	  0.006254	  0.001545	
4.29435	  0.002758	  0.005545	  0.001582	
4.36593	  0.002656	  0.005002	  0.001600	
4.4375	  0.002497	  0.004767	  0.001595	
4.50907	  0.002309	  0.004708	  0.001581	
4.58065	  0.002202	  0.004690	  0.001587	
4.65222	  0.002375	  0.004706	  0.001618	
4.72379	  0.003166	  0.004860	  0.001645	
4.79536	  0.004966	  0.005256	  0.001649	
4.86694	  0.007484	  0.005781	  0.001621	
4.93851	  0.008988	  0.005875	  0.001556	
5.01008	  0.007147	  0.004385	  0.001420	
5.08165	  0.000738	 -0.000140	  0.001110	
5.15323	 -0.009387	 -0.007832	  0.000595	
5.2248	 -0.017983	 -0.013887	  0.000251	
5.29637	 -0.010432	 -0.004365	  0.001176	
5.36794	  0.038483	  0.043251	  0.005035	
5.43952	  0.148300	  0.143034	  0.012594	
5.51109	  0.305147	  0.273120	  0.021586	
5.58266	  0.460418	  0.381826	  0.027619	
5.65423	  0.563749	  0.435222	  0.028608	
5.72581	  0.594664	  0.442417	  0.026652	
5.79738	  0.573022	  0.434888	  0.025024	
5.86895	  0.544439	  0.440347	  0.025394	
5.94052	  0.547642	  0.469877	  0.027958	
6.0121	  0.590436	  0.519069	  0.032056	
6.08367	  0.651822	  0.584605	  0.036248	
6.15524	  0.703840	  0.670773	  0.039413	
6.22681	  0.732776	  0.767488	  0.041927	
6.29839	  0.743459	  0.837612	  0.044074	
6.36996	  0.745040	  0.849866	  0.044257	
6.44153	  0.738146	  0.812990	  0.041286	
6.5131	  0.723660	  0.759292	  0.037003	
6.58468	  0.712691	  0.715574	  0.034418	
6.65625	  0.719163	  0.698170	  0.034835	
6.72782	  0.749766	  0.706498	  0.037684	
6.7994	  0.795151	  0.720673	  0.041366	
6.87097	  0.828512	  0.721540	  0.044021	
6.94254	  0.827526	  0.706792	  0.044963	
7.01411	  0.797835	  0.689930	  0.045214	
7.08569	  0.762990	  0.686731	  0.045606	
7.15726	  0.737177	  0.698378	  0.045533	
7.22883	  0.719758	  0.713848	  0.044472	
7.3004	  0.705662	  0.722501	  0.042902	
7.37198	  0.690000	  0.720245	  0.041329	
7.44355	  0.672971	  0.715686	  0.040079	
7.51512	  0.662949	  0.721066	  0.039543	
7.58669	  0.664487	  0.728379	  0.039440	
7.65827	  0.666426	  0.712003	  0.038638	
7.72984	  0.655757	  0.663294	  0.036505	
7.80141	  0.640400	  0.609172	  0.033927	
7.87298	  0.638563	  0.583006	  0.032433	
7.94456	  0.652727	  0.586240	  0.032612	
8.01613	  0.674771	  0.596446	  0.033840	
8.0877	  0.698763	  0.601165	  0.035348	
8.15927	  0.717194	  0.606442	  0.036977	
8.23085	  0.722816	  0.622300	  0.038692	
8.30242	  0.715818	  0.645816	  0.040189	
8.37399	  0.708706	  0.659330	  0.041592	
8.44556	  0.721539	  0.654886	  0.043404	
8.51714	  0.757528	  0.645869	  0.045256	
8.58871	  0.792275	  0.644383	  0.046155	
8.66028	  0.798087	  0.651597	  0.046075	
8.73185	  0.769727	  0.665326	  0.045816	
8.80343	  0.727293	  0.674489	  0.045304	
8.875	  0.698617	  0.662253	  0.043345	
8.94657	  0.693228	  0.628351	  0.039539	
9.01815	  0.695803	  0.598348	  0.035501	
9.08972	  0.691373	  0.598547	  0.033536	
9.16129	  0.682616	  0.623892	  0.034342	
9.23286	  0.673653	  0.647323	  0.036367	
9.30444	  0.659820	  0.651041	  0.037696	
9.37601	  0.641117	  0.634215	  0.037889	
9.44758	  0.625282	  0.608038	  0.037303	
9.51915	  0.615267	  0.586381	  0.035990	
9.59073	  0.605376	  0.569784	  0.034132	
9.6623	  0.590120	  0.550900	  0.032411	
9.73387	  0.572215	  0.534026	  0.031343	
9.80544	  0.557890	  0.526915	  0.030645	
9.87702	  0.549813	  0.525282	  0.029585	
9.94859	  0.551845	  0.521643	  0.028045	
10.0202	  0.565713	  0.512886	  0.026750	
10.0917	  0.573566	  0.495981	  0.026034	
10.1633	  0.542554	  0.466649	  0.025177	
10.2349	  0.454716	  0.418564	  0.023201	
10.3065	  0.324031	  0.342665	  0.019677	
10.378	  0.187579	  0.238306	  0.014905	
10.4496	  0.082768	  0.128000	  0.009751	
10.5212	  0.025063	  0.045273	  0.005369	
10.5927	  0.004494	  0.004307	  0.002620	
10.6643	  0.001916	 -0.005916	  0.001493	
10.7359	  0.004138	 -0.003003	  0.001317	
10.8075	  0.006206	  0.001984	  0.001467	
10.879	  0.007116	  0.005146	  0.001629	
10.9506	  0.006886	  0.006278	  0.001712	
11.0222	  0.005985	  0.006166	  0.001706	
11.0937	  0.005101	  0.005510	  0.001619	
11.1653	  0.004559	  0.004758	  0.001480	
